<svg preserveAspectRatio="none" width="100%" height="100%" overflow="visible" style="display: block;" viewBox="0 0 16 16" fill="none" xmlns="http://www.w3.org/2000/svg">
<g id="Icon">
<path id="Vector" d="M11.3333 14C11.5101 14 11.6797 13.9298 11.8047 13.8047C11.9298 13.6797 12 13.5101 12 13.3333V9.76667C12 9.462 12.2107 9.204 12.4847 9.07267C13.052 8.80203 13.5055 8.3397 13.7651 7.76726C14.0247 7.19482 14.0738 6.54907 13.9036 5.94397C13.7335 5.33888 13.355 4.81334 12.8351 4.4601C12.3152 4.10686 11.6872 3.94863 11.062 4.01333C10.8045 3.4148 10.3772 2.90486 9.83305 2.54656C9.28885 2.18825 8.65157 1.9973 8 1.9973C7.34843 1.9973 6.71115 2.18825 6.16695 2.54656C5.62275 2.90486 5.19549 3.4148 4.938 4.01333C4.31306 3.94908 3.68549 4.10754 3.16596 4.46076C2.64642 4.81398 2.26827 5.33929 2.09819 5.94407C1.92811 6.54884 1.97701 7.19425 2.23627 7.7665C2.49553 8.33875 2.94851 8.80109 3.51533 9.072C3.78933 9.204 4 9.462 4 9.766V13.3333C4 13.5101 4.07024 13.6797 4.19526 13.8047C4.32029 13.9298 4.48986 14 4.66667 14H11.3333Z" stroke="var(--stroke-0, white)" stroke-width="1.66667" stroke-linecap="round" stroke-linejoin="round"/>
<path id="Vector_2" d="M4 11.3333H12" stroke="var(--stroke-0, white)" stroke-width="1.66667" stroke-linecap="round" stroke-linejoin="round"/>
</g>
</svg>
