<svg preserveAspectRatio="none" width="100%" height="100%" overflow="visible" style="display: block;" viewBox="0 0 16 16" fill="none" xmlns="http://www.w3.org/2000/svg">
<g id="Icon">
<path id="Vector" d="M2.66667 10.6667V9.08C2.66667 7.66667 1.98 7 2 5.33333C2.02 3.52 2.99333 1.33333 5 1.33333C6.24667 1.33333 6.66667 2.53333 6.66667 3.66667C6.66667 5.74 5.33333 7.44 5.33333 9.45333V10.6667C5.33333 11.0203 5.19286 11.3594 4.94281 11.6095C4.69276 11.8595 4.35362 12 4 12C3.64638 12 3.30724 11.8595 3.05719 11.6095C2.80714 11.3594 2.66667 11.0203 2.66667 10.6667Z" stroke="var(--stroke-0, white)" stroke-width="1.66667" stroke-linecap="round" stroke-linejoin="round"/>
<path id="Vector_2" d="M13.3333 13.3333V11.7467C13.3333 10.3333 14.02 9.66667 14 8C13.98 6.18667 13.0067 4 11 4C9.75333 4 9.33333 5.2 9.33333 6.33333C9.33333 8.40667 10.6667 10.1067 10.6667 12.12V13.3333C10.6667 13.687 10.8071 14.0261 11.0572 14.2761C11.3072 14.5262 11.6464 14.6667 12 14.6667C12.3536 14.6667 12.6928 14.5262 12.9428 14.2761C13.1929 14.0261 13.3333 13.687 13.3333 13.3333Z" stroke="var(--stroke-0, white)" stroke-width="1.66667" stroke-linecap="round" stroke-linejoin="round"/>
<path id="Vector_3" d="M10.6667 11.3333H13.3333" stroke="var(--stroke-0, white)" stroke-width="1.66667" stroke-linecap="round" stroke-linejoin="round"/>
<path id="Vector_4" d="M2.66667 8.66667H5.33333" stroke="var(--stroke-0, white)" stroke-width="1.66667" stroke-linecap="round" stroke-linejoin="round"/>
</g>
</svg>
