<svg preserveAspectRatio="none" width="100%" height="100%" overflow="visible" style="display: block;" viewBox="0 0 20 20" fill="none" xmlns="http://www.w3.org/2000/svg">
<g id="material-symbols:wifi-sharp" clip-path="url(#clip0_0_41)">
<path id="Vector" d="M5.29167 12.7917L3.54167 11C4.40278 10.1389 5.38889 9.47917 6.5 9.02083C7.61111 8.5625 8.77778 8.33333 10 8.33333C11.2222 8.33333 12.3925 8.56611 13.5108 9.03167C14.6292 9.49722 15.6117 10.1672 16.4583 11.0417L14.7083 12.7917C14.0833 12.1667 13.3644 11.6842 12.5517 11.3442C11.7389 11.0042 10.8883 10.8339 10 10.8333C9.11167 10.8328 8.26111 11.0031 7.44833 11.3442C6.63556 11.6853 5.91667 12.1678 5.29167 12.7917ZM1.75 9.25L2.38419e-07 7.5C1.31944 6.15278 2.84389 5.12139 4.57333 4.40583C6.30278 3.69028 8.11167 3.33278 10 3.33333C11.8883 3.33389 13.6975 3.69167 15.4275 4.40667C17.1575 5.12167 18.6817 6.15278 20 7.5L18.25 9.25C17.1528 8.15278 15.8922 7.30917 14.4683 6.71917C13.0444 6.12917 11.555 5.83389 10 5.83333C8.445 5.83278 6.95528 6.12806 5.53083 6.71917C4.10639 7.31028 2.84611 8.15389 1.75 9.25ZM10 17.5L7.0625 14.5417C7.45139 14.1528 7.89944 13.8542 8.40667 13.6458C8.91389 13.4375 9.445 13.3333 10 13.3333C10.555 13.3333 11.0864 13.4375 11.5942 13.6458C12.1019 13.8542 12.5497 14.1528 12.9375 14.5417L10 17.5Z" fill="var(--fill-0, #788284)"/>
</g>
<defs>
<clipPath id="clip0_0_41">
<rect width="20" height="20" fill="white"/>
</clipPath>
</defs>
</svg>
