<svg preserveAspectRatio="none" width="100%" height="100%" overflow="visible" style="display: block;" viewBox="0 0 20 20" fill="none" xmlns="http://www.w3.org/2000/svg">
<g id="material-symbols:home-rounded">
<path id="Vector" d="M3.33333 15.8333V8.33333C3.33333 8.06944 3.3925 7.81945 3.51083 7.58333C3.62917 7.34722 3.79222 7.15278 4 7L9 3.25C9.29167 3.02778 9.625 2.91667 10 2.91667C10.375 2.91667 10.7083 3.02778 11 3.25L16 7C16.2083 7.15278 16.3717 7.34722 16.49 7.58333C16.6083 7.81945 16.6672 8.06944 16.6667 8.33333V15.8333C16.6667 16.2917 16.5033 16.6842 16.1767 17.0108C15.85 17.3375 15.4578 17.5006 15 17.5H12.5C12.2639 17.5 12.0661 17.42 11.9067 17.26C11.7472 17.1 11.6672 16.9022 11.6667 16.6667V12.5C11.6667 12.2639 11.5867 12.0661 11.4267 11.9067C11.2667 11.7472 11.0689 11.6672 10.8333 11.6667H9.16667C8.93056 11.6667 8.73278 11.7467 8.57333 11.9067C8.41389 12.0667 8.33389 12.2644 8.33333 12.5V16.6667C8.33333 16.9028 8.25333 17.1008 8.09333 17.2608C7.93333 17.4208 7.73556 17.5006 7.5 17.5H5C4.54167 17.5 4.14944 17.3369 3.82333 17.0108C3.49722 16.6847 3.33389 16.2922 3.33333 15.8333Z" fill="var(--fill-0, white)"/>
</g>
</svg>
