<svg preserveAspectRatio="none" width="100%" height="100%" overflow="visible" style="display: block;" viewBox="0 0 14 14" fill="none" xmlns="http://www.w3.org/2000/svg">
<g id="Icon">
<path id="Vector" d="M5.83333 6.41667V9.91667" stroke="var(--stroke-0, #788284)" stroke-width="1.16667" stroke-linecap="round" stroke-linejoin="round"/>
<path id="Vector_2" d="M8.16667 6.41667V9.91667" stroke="var(--stroke-0, #788284)" stroke-width="1.16667" stroke-linecap="round" stroke-linejoin="round"/>
<path id="Vector_3" d="M11.0833 3.5V11.6667C11.0833 11.9761 10.9604 12.2728 10.7416 12.4916C10.5228 12.7104 10.2261 12.8333 9.91667 12.8333H4.08333C3.77391 12.8333 3.47717 12.7104 3.25838 12.4916C3.03958 12.2728 2.91667 11.9761 2.91667 11.6667V3.5" stroke="var(--stroke-0, #788284)" stroke-width="1.16667" stroke-linecap="round" stroke-linejoin="round"/>
<path id="Vector_4" d="M1.75 3.5H12.25" stroke="var(--stroke-0, #788284)" stroke-width="1.16667" stroke-linecap="round" stroke-linejoin="round"/>
<path id="Vector_5" d="M4.66667 3.5V2.33333C4.66667 2.02391 4.78958 1.72717 5.00838 1.50838C5.22717 1.28958 5.52391 1.16667 5.83333 1.16667H8.16667C8.47609 1.16667 8.77283 1.28958 8.99162 1.50838C9.21042 1.72717 9.33333 2.02391 9.33333 2.33333V3.5" stroke="var(--stroke-0, #788284)" stroke-width="1.16667" stroke-linecap="round" stroke-linejoin="round"/>
</g>
</svg>
