<svg preserveAspectRatio="none" width="100%" height="100%" overflow="visible" style="display: block;" viewBox="0 0 20 20" fill="none" xmlns="http://www.w3.org/2000/svg">
<g id="tabler:plane-filled">
<path id="Vector" d="M10.7233 2.08667L13.8167 7.5H16.6667C17.3297 7.5 17.9656 7.76339 18.4344 8.23223C18.9033 8.70107 19.1667 9.33696 19.1667 10C19.1667 10.663 18.9033 11.2989 18.4344 11.7678C17.9656 12.2366 17.3297 12.5 16.6667 12.5H13.8167L10.7233 17.9133C10.6505 18.0409 10.5452 18.1469 10.4182 18.2207C10.2912 18.2944 10.1469 18.3333 10 18.3333H7.5C7.37096 18.3334 7.24366 18.3035 7.12814 18.246C7.01262 18.1885 6.91204 18.1049 6.83431 18.0019C6.75659 17.8989 6.70385 17.7793 6.68025 17.6524C6.65666 17.5255 6.66285 17.3949 6.69833 17.2708L8.06167 12.5H6.17833L4.75583 13.9225C4.59959 14.0788 4.38766 14.1666 4.16667 14.1667H1.66667C1.52467 14.1666 1.38506 14.1302 1.26106 14.061C1.13706 13.9919 1.0328 13.8921 0.958171 13.7713C0.883539 13.6505 0.841011 13.5127 0.834622 13.3708C0.828233 13.229 0.858196 13.0879 0.921667 12.9608L2.40167 10L0.921667 7.03917C0.858196 6.91215 0.828233 6.77102 0.834622 6.62917C0.841011 6.48732 0.883539 6.34946 0.958171 6.22866C1.0328 6.10786 1.13706 6.00814 1.26106 5.93895C1.38506 5.86977 1.52467 5.83341 1.66667 5.83333H4.16667C4.38766 5.83338 4.59959 5.92121 4.75583 6.0775L6.17833 7.5H8.06167L6.69833 2.72917C6.66285 2.6051 6.65666 2.47448 6.68025 2.34762C6.70385 2.22075 6.75659 2.10109 6.83431 1.99808C6.91204 1.89507 7.01262 1.81152 7.12814 1.754C7.24366 1.69649 7.37096 1.6666 7.5 1.66667H10C10.1469 1.66671 10.2912 1.70559 10.4182 1.77934C10.5452 1.8531 10.6505 1.95912 10.7233 2.08667Z" fill="var(--fill-0, white)"/>
</g>
</svg>
