<svg preserveAspectRatio="none" width="100%" height="100%" overflow="visible" style="display: block;" viewBox="0 0 20 20" fill="none" xmlns="http://www.w3.org/2000/svg">
<g id="fluent:food-16-filled">
<path id="Vector" d="M8.40375 1.3175C8.48646 1.3585 8.55907 1.41732 8.61634 1.48972C8.67362 1.56213 8.71414 1.64632 8.735 1.73625C8.7575 1.835 9.375 4.4775 9.375 6.25C9.375 7.4375 8.8225 8.49625 7.9625 9.1825C7.65 9.4325 7.5 9.705 7.5 9.9325V10.54C7.5 10.5692 7.50167 10.5967 7.505 10.6225C7.5475 10.9325 7.70125 12.0838 7.845 13.2775C7.98625 14.4488 8.125 15.7263 8.125 16.25C8.125 16.913 7.86161 17.5489 7.39277 18.0178C6.92393 18.4866 6.28804 18.75 5.625 18.75C4.96196 18.75 4.32607 18.4866 3.85723 18.0178C3.38839 17.5489 3.125 16.913 3.125 16.25C3.125 15.725 3.26375 14.45 3.405 13.2775C3.54875 12.0838 3.7025 10.9325 3.745 10.6225L3.75 10.54V9.9325C3.75 9.705 3.6 9.4325 3.2875 9.1825C2.84685 8.83124 2.49104 8.38519 2.24649 7.87749C2.00195 7.3698 1.87498 6.81352 1.875 6.25C1.875 4.48375 2.4875 1.855 2.515 1.7375C2.5475 1.59855 2.62611 1.47471 2.73803 1.38618C2.84994 1.29764 2.98855 1.24964 3.13125 1.25C3.48125 1.25 3.765 1.53375 3.765 1.88375V5.63125C3.76007 5.71566 3.7725 5.80019 3.80151 5.87961C3.83052 5.95904 3.87551 6.03167 3.93368 6.09303C3.99186 6.15439 4.062 6.20318 4.13976 6.23637C4.21753 6.26957 4.30127 6.28648 4.38583 6.28605C4.47038 6.28562 4.55395 6.26787 4.63138 6.23389C4.70881 6.1999 4.77845 6.15041 4.836 6.08846C4.89355 6.02652 4.9378 5.95343 4.96601 5.87372C4.99421 5.79401 5.00578 5.70936 5 5.625V1.875C5 1.70924 5.06585 1.55027 5.18306 1.43306C5.30027 1.31585 5.45924 1.25 5.625 1.25C5.79076 1.25 5.94973 1.31585 6.06694 1.43306C6.18415 1.55027 6.25 1.70924 6.25 1.875V5.6575C6.25348 5.8216 6.32201 5.9776 6.44051 6.09118C6.55901 6.20475 6.71777 6.26661 6.88187 6.26312C7.04598 6.25964 7.20198 6.19112 7.31555 6.07262C7.42913 5.95412 7.49098 5.79535 7.4875 5.63125V1.88125C7.4875 1.5325 7.77 1.25 8.12 1.25C8.1475 1.25 8.27 1.25 8.40375 1.3175ZM11.25 6.875C11.25 5.38316 11.8426 3.95242 12.8975 2.89752C13.9524 1.84263 15.3832 1.25 16.875 1.25C17.0408 1.25 17.1997 1.31585 17.3169 1.43306C17.4342 1.55027 17.5 1.70924 17.5 1.875V9.34125L17.5238 9.5625C17.6232 10.4954 17.7186 11.4288 17.81 12.3625C17.9638 13.9325 18.125 15.6925 18.125 16.25C18.125 16.913 17.8616 17.5489 17.3928 18.0178C16.9239 18.4866 16.288 18.75 15.625 18.75C14.962 18.75 14.3261 18.4866 13.8572 18.0178C13.3884 17.5489 13.125 16.913 13.125 16.25C13.125 15.6925 13.2862 13.9325 13.44 12.3625C13.5187 11.5663 13.5975 10.8037 13.6563 10.2387L13.6812 10H12.5C12.1685 10 11.8505 9.8683 11.6161 9.63388C11.3817 9.39946 11.25 9.08152 11.25 8.75V6.875Z" fill="var(--fill-0, #788284)"/>
</g>
</svg>
