<svg preserveAspectRatio="none" width="100%" height="100%" overflow="visible" style="display: block;" viewBox="0 0 20 20" fill="none" xmlns="http://www.w3.org/2000/svg">
<g id="mynaui:plane">
<path id="Vector" d="M11.7783 5.82667L14.6083 2.99583C14.9269 2.68241 15.3565 2.50757 15.8034 2.5094C16.2503 2.51122 16.6784 2.68957 16.9944 3.00559C17.3104 3.32161 17.4888 3.7497 17.4906 4.19662C17.4924 4.64354 17.3176 5.07307 17.0042 5.39167L14.1733 8.22167L15.705 15.8425C15.9008 16.8175 14.01 18.1758 13.5067 16.8842L11.265 11.1308L8.35417 14.0417C8.49583 15.7425 8.52667 16.3083 7.33417 17.5L5.52167 14.4783L2.5 12.6658C3.69167 11.4733 4.2575 11.5033 5.95833 11.6458L8.86917 8.73583L3.11583 6.49333C1.82417 5.99 3.1825 4.09833 4.1575 4.295L11.7783 5.82667Z" stroke="var(--stroke-0, #788284)" stroke-width="1.25" stroke-linecap="round" stroke-linejoin="round"/>
</g>
</svg>
