<svg preserveAspectRatio="none" width="100%" height="100%" overflow="visible" style="display: block;" viewBox="0 0 20 20" fill="none" xmlns="http://www.w3.org/2000/svg">
<g id="mynaui:plane-solid">
<path id="Vector" d="M17.4458 2.55417C17.0109 2.11943 16.4212 1.87521 15.8063 1.87521C15.1913 1.87521 14.6016 2.11943 14.1667 2.55417L11.5733 5.1475L4.28167 3.6825C3.82 3.59 3.385 3.75167 3.06333 3.96C2.72888 4.17837 2.44962 4.47132 2.2475 4.81583C2.05583 5.14333 1.90917 5.57 1.98 6.00833C2.0575 6.49667 2.38333 6.87833 2.88917 7.075L7.75083 8.97L5.72167 11C5.03 10.9442 4.4375 10.9142 3.88917 11.0492C3.225 11.2125 2.6875 11.595 2.05833 12.2242C1.99107 12.2913 1.94 12.3729 1.90901 12.4627C1.87802 12.5526 1.86792 12.6483 1.87949 12.7426C1.89106 12.837 1.92399 12.9274 1.97578 13.0071C2.02756 13.0868 2.09684 13.1536 2.17833 13.2025L5.06667 14.9333L6.8 17.8208C6.84891 17.9022 6.91571 17.9713 6.99532 18.023C7.07494 18.0747 7.16528 18.1076 7.25949 18.1191C7.35371 18.1307 7.44932 18.1207 7.53908 18.0898C7.62883 18.0589 7.71037 18.0079 7.7775 17.9408C8.40667 17.3117 8.78917 16.7742 8.9525 16.11C9.0875 15.5617 9.0575 14.97 9.00167 14.2775L11.0308 12.2483L12.9258 17.1108C13.1225 17.6167 13.505 17.9425 13.9925 18.0192C14.4317 18.09 14.8575 17.9442 15.1858 17.7517C15.53 17.5494 15.8227 17.2702 16.0408 16.9358C16.2492 16.6142 16.4108 16.1792 16.3183 15.7183L14.8533 8.42667L17.4458 5.83333C17.6614 5.61816 17.8324 5.36259 17.9491 5.08125C18.0658 4.79991 18.1258 4.49832 18.1258 4.19375C18.1258 3.88918 18.0658 3.58759 17.9491 3.30625C17.8324 3.02491 17.6614 2.76934 17.4458 2.55417Z" fill="var(--fill-0, #788284)"/>
</g>
</svg>
