<svg preserveAspectRatio="none" width="100%" height="100%" overflow="visible" style="display: block;" viewBox="0 0 20 20" fill="none" xmlns="http://www.w3.org/2000/svg">
<g id="material-symbols:movie">
<path id="Vector" d="M3.33333 3.33333L5 6.66667H7.5L5.83333 3.33333H7.5L9.16667 6.66667H11.6667L10 3.33333H11.6667L13.3333 6.66667H15.8333L14.1667 3.33333H16.6667C17.125 3.33333 17.5175 3.49667 17.8442 3.82333C18.1708 4.15 18.3339 4.54222 18.3333 5V15C18.3333 15.4583 18.1703 15.8508 17.8442 16.1775C17.5181 16.5042 17.1256 16.6672 16.6667 16.6667H3.33333C2.875 16.6667 2.48278 16.5036 2.15667 16.1775C1.83056 15.8514 1.66722 15.4589 1.66667 15V5C1.66667 4.54167 1.83 4.14944 2.15667 3.82333C2.48333 3.49722 2.87556 3.33389 3.33333 3.33333Z" fill="var(--fill-0, #788284)"/>
</g>
</svg>
